# xmcd
#
# Track frame offsets:
# 182
# 15165
# 29205
# 41640
# 54392
# 67250
# 81327
# 93790
# 105527
# 118882
# 129592
# 142887
# 155025
# 167442
# 182072
#
# Disc length: 2570 seconds
#
#
# Revision: 1
# Processed by: cddbd v1.5.2PL0 Copyright (c) Steve Scherf et al.
# Submitted via: FreeRIP 2.944 
#
DISCID=c90a080f
DTITLE=Tonico and Tinoco - Som da Terra
DYEAR=1900
DGENRE=Country
TTITLE0=Painera Velha
TTITLE1=Adeus, Morena, Adeus
TTITLE2=Velhas Cartas
TTITLE3=Rio Pequeno
TTITLE4=Filho de Carpinteiro
TTITLE5=Ogondoleiro do Amor
TTITLE6=Brasil Caboclo
TTITLE7=Arrasta-pé Na Tuia
TTITLE8=Meu Sertão
TTITLE9=Vida De Operário
TTITLE10=Boiadeiro Punho de Aço
TTITLE11=Burro Picaço
TTITLE12=Mourão Da Porteira
TTITLE13=Chico Mineiro
TTITLE14=Adeus Mariana
EXTD=musicas para  Beraldo viajar no tempo
EXTT0=
EXTT1=
EXTT2=
EXTT3=
EXTT4=
EXTT5=
EXTT6=
EXTT7=
EXTT8=
EXTT9=
EXTT10=
EXTT11=
EXTT12=
EXTT13=
EXTT14=
PLAYORDER=
